
<svg width="36pt" height="36pt" viewBox="0 0 36 36" version="1.1" xmlns="http://www.w3.org/2000/svg">
  <defs></defs>
  <g id="surface1" transform="matrix(0.901144, 0, 0, 0.9596, -37.872692, -40.30695)">
    <g clip-path="url(#clip1)" clip-rule="nonzero">
      <path style=" stroke:none;fill-rule:nonzero;fill:rgb(100%,100%,100%);fill-opacity:0;" d="M 36 36 L 559 36 L 559 805.867188 L 36 805.867188 Z M 36 36 "></path>
    </g>
    <g clip-path="url(#clip2)" clip-rule="nonzero">
      <path style="stroke: none; fill-rule: nonzero; fill-opacity: 1;" d="M 79.484375 66.804688 C 78.414062 66.804688 77.523438 67.476562 77.167969 68.371094 L 65.585938 66.042969 C 65.585938 65.957031 65.585938 65.910156 65.585938 65.820312 C 65.585938 65.507812 65.542969 65.195312 65.453125 64.878906 L 71.6875 62.148438 C 72.3125 63.179688 73.425781 63.894531 74.71875 63.894531 C 76.675781 63.894531 78.28125 62.285156 78.28125 60.3125 C 78.28125 58.882812 77.433594 57.628906 76.1875 57.089844 L 77.035156 54.179688 C 77.121094 54.179688 77.210938 54.226562 77.300781 54.226562 C 77.746094 54.226562 78.191406 54.046875 78.503906 53.734375 C 79.214844 53.0625 79.261719 51.941406 78.59375 51.226562 C 78.28125 50.867188 77.789062 50.6875 77.300781 50.6875 C 76.855469 50.6875 76.410156 50.867188 76.097656 51.179688 C 75.742188 51.496094 75.5625 51.941406 75.5625 52.433594 C 75.5625 52.925781 75.695312 53.375 76.054688 53.6875 C 76.230469 53.867188 76.410156 54 76.632812 54.089844 L 75.832031 56.957031 C 75.472656 56.867188 75.117188 56.777344 74.761719 56.777344 C 73.78125 56.777344 72.890625 57.179688 72.265625 57.808594 L 71.375 56.910156 C 72.132812 55.972656 72.132812 54.582031 71.289062 53.6875 C 70.84375 53.195312 70.175781 52.925781 69.507812 52.925781 C 68.882812 52.925781 68.304688 53.152344 67.859375 53.597656 C 67.589844 53.867188 67.367188 54.179688 67.234375 54.539062 L 63.492188 53.910156 L 63.984375 46.839844 C 65.1875 46.703125 66.121094 45.675781 66.121094 44.421875 C 66.121094 43.078125 65.050781 42.003906 63.714844 42.003906 C 62.378906 42.003906 61.3125 43.078125 61.3125 44.421875 C 61.3125 45.539062 62.066406 46.523438 63.136719 46.792969 L 62.648438 53.777344 L 56.679688 52.703125 C 56.632812 52.300781 56.5 51.941406 56.234375 51.628906 C 55.921875 51.269531 55.433594 51.089844 54.941406 51.089844 C 54.585938 51.089844 54.230469 51.226562 53.917969 51.40625 L 50.976562 48.179688 C 51.246094 47.867188 51.421875 47.464844 51.421875 47.0625 C 51.421875 46.078125 50.621094 45.269531 49.640625 45.269531 C 48.660156 45.269531 47.859375 46.078125 47.859375 47.0625 C 47.859375 48.046875 48.660156 48.851562 49.640625 48.851562 C 50.042969 48.851562 50.355469 48.71875 50.667969 48.539062 L 53.605469 51.761719 C 53.070312 52.433594 53.027344 53.375 53.605469 54.046875 L 50.890625 58.433594 C 50.488281 58.253906 50.042969 58.164062 49.597656 58.164062 C 48.796875 58.164062 47.992188 58.480469 47.414062 59.015625 C 47.28125 59.148438 47.148438 59.285156 47.058594 59.417969 L 45.410156 58.34375 C 45.542969 58.121094 45.589844 57.851562 45.589844 57.582031 C 45.589844 56.597656 44.785156 55.792969 43.808594 55.792969 C 42.828125 55.792969 42.027344 56.597656 42.027344 57.582031 C 42.027344 58.566406 42.828125 59.375 43.808594 59.375 C 44.339844 59.375 44.832031 59.105469 45.144531 58.746094 L 46.792969 59.820312 C 46.121094 60.984375 46.300781 62.550781 47.238281 63.582031 C 47.371094 63.714844 47.460938 63.804688 47.59375 63.894531 L 46.167969 65.910156 C 45.855469 65.777344 45.5 65.6875 45.144531 65.6875 C 43.808594 65.6875 42.695312 66.761719 42.695312 68.148438 C 42.695312 69.535156 43.761719 70.613281 45.144531 70.613281 C 46.523438 70.613281 47.59375 69.535156 47.59375 68.148438 C 47.59375 67.523438 47.324219 66.894531 46.925781 66.492188 L 48.4375 64.433594 C 48.796875 64.566406 49.195312 64.65625 49.640625 64.65625 C 50.175781 64.65625 50.710938 64.523438 51.15625 64.253906 L 54.496094 69.359375 C 54.09375 69.671875 53.871094 70.164062 53.871094 70.699219 C 53.871094 71.6875 54.675781 72.492188 55.65625 72.492188 C 56.632812 72.492188 57.4375 71.6875 57.4375 70.699219 C 57.4375 69.714844 56.632812 68.910156 55.65625 68.910156 C 55.386719 68.910156 55.121094 69 54.898438 69.089844 L 51.558594 63.894531 C 51.644531 63.804688 51.734375 63.761719 51.824219 63.671875 C 53.117188 62.464844 53.160156 60.449219 51.957031 59.148438 C 51.867188 59.0625 51.78125 58.972656 51.644531 58.882812 L 54.316406 54.492188 C 54.496094 54.582031 54.71875 54.628906 54.898438 54.628906 C 55.34375 54.628906 55.789062 54.449219 56.101562 54.136719 C 56.277344 53.957031 56.410156 53.777344 56.5 53.597656 L 62.46875 54.628906 L 62.023438 62.417969 C 61.3125 62.464844 60.6875 62.730469 60.152344 63.132812 L 59.304688 62.195312 C 59.574219 61.882812 59.753906 61.476562 59.753906 61.03125 C 59.753906 60.046875 58.949219 59.238281 57.96875 59.238281 C 56.992188 59.238281 56.1875 60.046875 56.1875 61.03125 C 56.1875 62.015625 56.992188 62.820312 57.96875 62.820312 C 58.328125 62.820312 58.683594 62.6875 58.996094 62.507812 L 59.839844 63.449219 C 59.261719 64.074219 58.90625 64.878906 58.90625 65.820312 C 58.90625 67.65625 60.332031 69.132812 62.113281 69.222656 L 62.246094 74.6875 C 61.042969 74.820312 60.109375 75.847656 60.109375 77.101562 C 60.109375 78.445312 61.175781 79.519531 62.511719 79.519531 C 63.851562 79.519531 64.917969 78.445312 64.917969 77.101562 C 64.917969 75.804688 63.9375 74.773438 62.648438 74.6875 L 62.511719 69.222656 C 63.851562 69.089844 64.964844 68.195312 65.410156 66.941406 L 76.988281 69.269531 C 76.988281 69.269531 76.988281 69.3125 76.988281 69.3125 C 76.988281 70.699219 78.101562 71.820312 79.484375 71.820312 C 80.863281 71.820312 81.976562 70.699219 81.976562 69.3125 C 81.976562 67.925781 80.820312 66.804688 79.484375 66.804688 Z M 76.722656 51.761719 C 76.898438 51.628906 77.078125 51.539062 77.300781 51.539062 C 77.523438 51.539062 77.789062 51.628906 77.925781 51.808594 C 78.234375 52.164062 78.234375 52.703125 77.878906 53.0625 C 77.523438 53.375 76.945312 53.375 76.632812 53.015625 C 76.453125 52.835938 76.410156 52.613281 76.410156 52.390625 C 76.410156 52.164062 76.542969 51.898438 76.722656 51.761719 Z M 43.851562 58.480469 C 43.363281 58.480469 42.960938 58.074219 42.960938 57.582031 C 42.960938 57.089844 43.363281 56.6875 43.851562 56.6875 C 44.339844 56.6875 44.742188 57.089844 44.742188 57.582031 C 44.742188 58.074219 44.339844 58.480469 43.851562 58.480469 Z M 45.1875 69.625 C 44.339844 69.625 43.628906 68.910156 43.628906 68.058594 C 43.628906 67.207031 44.339844 66.492188 45.1875 66.492188 C 46.035156 66.492188 46.746094 67.207031 46.746094 68.058594 C 46.746094 68.910156 46.035156 69.625 45.1875 69.625 Z M 56.5 70.746094 C 56.5 71.238281 56.101562 71.640625 55.609375 71.640625 C 55.121094 71.640625 54.71875 71.238281 54.71875 70.746094 C 54.71875 70.253906 55.121094 69.851562 55.609375 69.851562 C 56.101562 69.851562 56.5 70.253906 56.5 70.746094 Z M 51.199219 63.046875 C 50.753906 63.449219 50.21875 63.671875 49.640625 63.671875 C 49.019531 63.671875 48.394531 63.402344 47.949219 62.957031 C 47.101562 62.015625 47.148438 60.582031 48.039062 59.6875 C 48.484375 59.285156 49.019531 59.0625 49.597656 59.0625 C 50.21875 59.0625 50.84375 59.328125 51.289062 59.777344 C 52.179688 60.71875 52.136719 62.195312 51.199219 63.046875 Z M 49.640625 47.914062 C 49.152344 47.914062 48.75 47.507812 48.75 47.015625 C 48.75 46.523438 49.152344 46.121094 49.640625 46.121094 C 50.132812 46.121094 50.53125 46.523438 50.53125 47.015625 C 50.488281 47.507812 50.132812 47.914062 49.640625 47.914062 Z M 55.566406 53.507812 C 55.210938 53.824219 54.628906 53.824219 54.316406 53.464844 C 54.007812 53.105469 54.007812 52.570312 54.363281 52.210938 C 54.539062 52.078125 54.71875 51.988281 54.941406 51.988281 C 55.164062 51.988281 55.433594 52.078125 55.566406 52.253906 C 55.921875 52.613281 55.878906 53.152344 55.566406 53.507812 Z M 74.71875 57.628906 C 76.1875 57.628906 77.390625 58.835938 77.390625 60.3125 C 77.390625 61.792969 76.1875 63 74.71875 63 C 73.246094 63 72.042969 61.792969 72.042969 60.3125 C 72.042969 58.835938 73.246094 57.628906 74.71875 57.628906 Z M 68.4375 54.226562 C 68.703125 53.957031 69.105469 53.824219 69.507812 53.824219 C 69.953125 53.824219 70.351562 54 70.621094 54.316406 C 71.199219 54.941406 71.152344 55.925781 70.53125 56.507812 C 70.261719 56.777344 69.863281 56.910156 69.460938 56.910156 C 69.015625 56.910156 68.617188 56.734375 68.347656 56.417969 C 67.769531 55.746094 67.8125 54.808594 68.4375 54.226562 Z M 67.054688 55.390625 C 67.054688 55.972656 67.277344 56.554688 67.722656 57 C 68.171875 57.492188 68.839844 57.761719 69.507812 57.761719 C 70.085938 57.761719 70.621094 57.539062 71.066406 57.179688 L 71.957031 58.074219 C 71.511719 58.65625 71.199219 59.417969 71.199219 60.269531 C 71.199219 60.628906 71.242188 60.941406 71.332031 61.300781 L 65.097656 64.03125 C 64.605469 63.222656 63.804688 62.640625 62.871094 62.464844 L 63.402344 54.71875 Z M 62.113281 44.332031 C 62.113281 43.480469 62.78125 42.808594 63.625 42.808594 C 64.472656 42.808594 65.140625 43.480469 65.140625 44.332031 C 65.140625 45.179688 64.472656 45.851562 63.625 45.851562 C 62.78125 45.851562 62.113281 45.179688 62.113281 44.332031 Z M 57.96875 61.925781 C 57.480469 61.925781 57.078125 61.523438 57.078125 61.03125 C 57.078125 60.539062 57.480469 60.136719 57.96875 60.136719 C 58.460938 60.136719 58.859375 60.539062 58.859375 61.03125 C 58.859375 61.523438 58.460938 61.925781 57.96875 61.925781 Z M 64.027344 77.101562 C 64.027344 77.953125 63.359375 78.625 62.511719 78.625 C 61.667969 78.625 61 77.953125 61 77.101562 C 61 76.253906 61.667969 75.582031 62.511719 75.582031 C 63.359375 75.582031 64.027344 76.253906 64.027344 77.101562 Z M 62.246094 68.285156 C 60.867188 68.285156 59.753906 67.164062 59.753906 65.777344 C 59.753906 64.386719 60.867188 63.269531 62.246094 63.269531 C 63.625 63.269531 64.695312 64.433594 64.695312 65.820312 C 64.695312 67.207031 63.582031 68.285156 62.246094 68.285156 Z M 79.484375 70.878906 C 78.59375 70.878906 77.878906 70.164062 77.878906 69.269531 C 77.878906 68.371094 78.59375 67.65625 79.484375 67.65625 C 80.375 67.65625 81.085938 68.371094 81.085938 69.269531 C 81.085938 70.164062 80.328125 70.878906 79.484375 70.878906 Z M 79.484375 70.878906 "></path>
    </g>
  </g>
</svg>